:SAMPLES-PER-SECOND 30
:FULLY-SPECIFIED
:DEGREES
336
root  27.9262 38.0694 5.05147 -3.36359 -33.8509 2.99078
RightUpLeg  3.62326 -5.32955 3.41406
RightLeg  28.75 8.43008 -5.44815
RightFoot  -25.3185 0.199707 1.24644
RightToes  -5.82073e-011 -3.18055e-015 -2.98177e-016
Spine  9.67277 2.02629 8.58105
Spine1  8.14309 5.49536 -9.88738
HEad  -0.602729 -10.7629 6.2977
LeftShoulder1  -3.88251e-019 9.70628e-020 -3.87848e-018
LeftArm  -25.8435 75.5522 -56.9293
LeftForeArm  -11.3897 -8.62585 -0.544
LeftHand  -0.190233 2.06875 7.2706
RightShoulder  7.79271 10.5388 36.8428
RightArm  27.5916 -48.3623 11.8104
RightForeArm  -18.0585 43.2507 -24.4829
RightHand  -1.79619 4.27576 -21.1254
LeftUpLeg  -22.1921 0.42207 -6.09849
LeftLeg  30.019 -5.95789 5.75904
LeftFoot  -7.77459 -0.111402 1.90401
LeftToes  1.2018e-011 -3.94675e-011 -1.33631e-011
337
root  27.2724 37.9422 6.01475 -4.60114 -34.7208 4.59529
RightUpLeg  -0.245036 -6.98975 1.11191
RightLeg  39.7378 9.98719 -6.3272
RightFoot  -20.1605 0.332899 4.42098
RightToes  -5.82073e-011 -3.18055e-015 -2.98177e-016
Spine  10.4714 1.68796 6.69686
Spine1  7.96451 5.23799 -10.55
HEad  -0.840907 -10.1952 6.70192
LeftShoulder1  -3.88251e-019 9.70628e-020 -3.87848e-018
LeftArm  -23.4608 73.5615 -55.4018
LeftForeArm  -11.3389 -9.96828 -0.818229
LeftHand  -0.34239 0.687535 9.32015
RightShoulder  7.78847 10.5479 36.8008
RightArm  28.2256 -48.8879 11.9686
RightForeArm  -23.6195 48.3359 -29.0552
RightHand  -2.75389 6.99764 -25.2934
LeftUpLeg  -20.1202 0.586535 -7.27345
LeftLeg  31.2081 -4.81916 6.74023
LeftFoot  -10.728 -0.0586793 1.38201
LeftToes  1.2018e-011 -3.94675e-011 -1.33631e-011
338
root  26.5987 37.8955 6.91701 -5.32458 -35.8522 6.70143
RightUpLeg  -7.40004 -8.04477 -0.790337
RightLeg  51.6723 9.69969 -9.76698
RightFoot  -11.2871 -0.00203916 3.63905
RightToes  -5.82073e-011 -3.18055e-015 -2.98177e-016
Spine  11.2709 1.4791 4.21374
Spine1  6.88014 4.8514 -11.4345
HEad  -0.96397 -9.28951 6.31201
LeftShoulder1  -3.88251e-019 9.70628e-020 -3.87848e-018
LeftArm  -19.6687 71.3161 -53.4622
LeftForeArm  -11.8541 -11.925 -1.45632
LeftHand  -0.411755 0.193458 10.0588
RightShoulder  7.70302 10.5264 36.4214
RightArm  29.7428 -50.5201 11.5008
RightForeArm  -29.172 51.525 -32.4054
RightHand  -3.48578 8.45117 -28.5791
LeftUpLeg  -18.5349 1.74216 -8.87032
LeftLeg  31.0893 -4.40259 6.99944
LeftFoot  -13.4581 -0.0332385 0.755081
LeftToes  1.2018e-011 -3.94675e-011 -1.33631e-011
339
root  25.9003 37.8868 7.77893 -5.65991 -37.1677 8.559
RightUpLeg  -15.3112 -8.93081 -1.56622
RightLeg  60.2144 8.44621 -16.0309
RightFoot  -5.77382 0.0284994 -0.451576
RightToes  -5.82073e-011 -3.18055e-015 -2.98177e-016
Spine  11.9603 1.29907 2.02753
Spine1  5.9414 4.46948 -12.5948
HEad  -1.65167 -7.99364 5.19083
LeftShoulder1  -3.88251e-019 9.70628e-020 -3.87848e-018
LeftArm  -16.5839 68.4442 -52.3982
LeftForeArm  -11.1807 -14.3406 -2.04378
LeftHand  -0.438859 0.053407 10.4079
RightShoulder  7.6207 10.5035 36.0595
RightArm  32.0727 -52.7763 9.86052
RightForeArm  -32.0623 53.295 -34.5713
RightHand  -3.58432 8.37805 -29.4532
LeftUpLeg  -17.1746 3.23129 -10.1589
LeftLeg  30.7785 -4.58742 6.81464
LeftFoot  -15.2281 -0.0358691 0.276912
LeftToes  1.2018e-011 -3.94675e-011 -1.33631e-011
340
root  25.154 38.0151 8.67797 -5.47299 -38.2632 9.01917
RightUpLeg  -21.5392 -10.3617 -0.743386
RightLeg  63.6896 7.3282 -21.6249
RightFoot  -6.1445 0.281336 -4.44571
RightToes  -5.82073e-011 -3.18055e-015 -2.98177e-016
Spine  12.1665 0.795781 1.12728
Spine1  6.03377 3.89004 -13.2018
HEad  -2.99628 -6.30601 4.00905
LeftShoulder1  -3.88251e-019 9.70628e-020 -3.87848e-018
LeftArm  -15.7686 64.9649 -53.3796
LeftForeArm  -8.00204 -16.7193 -2.08053
LeftHand  -0.650523 -1.33391 11.9998
RightShoulder  7.63772 10.5144 36.1203
RightArm  35.4149 -54.7622 6.78911
RightForeArm  -31.6975 53.7139 -35.2077
RightHand  -3.26573 7.53324 -28.6101
LeftUpLeg  -14.8533 3.7341 -10.2085
LeftLeg  29.5057 -4.13072 6.81507
LeftFoot  -16.2487 -0.0536845 -0.370002
LeftToes  1.2018e-011 -3.94675e-011 -1.33631e-011
341
root  24.3047 38.3276 9.65104 -4.55219 -38.9352 8.4301
RightUpLeg  -26.073 -12.0482 1.15596
RightLeg  62.7553 6.68063 -22.3453
RightFoot  -8.42897 0.269688 -5.78937
RightToes  -5.82073e-011 -3.18055e-015 -2.98177e-016
Spine  11.7291 -0.0006853 0.537344
Spine1  6.52556 2.85095 -12.3878
HEad  -3.92561 -4.32818 3.07072
LeftShoulder1  -3.88251e-019 9.70628e-020 -3.87848e-018
LeftArm  -15.3694 61.6848 -55.6902
LeftForeArm  -4.96142 -18.9597 -1.48808
LeftHand  -1.04043 -3.30647 14.7145
RightShoulder  7.6968 10.5405 36.3589
RightArm  40.4339 -56.14 2.06264
RightForeArm  -30.1508 52.6489 -33.8029
RightHand  -2.94935 6.68008 -27.6966
LeftUpLeg  -11.5121 2.6846 -9.49718
LeftLeg  26.1959 -2.41284 7.01691
LeftFoot  -16.8785 -0.0847131 -1.18316
LeftToes  1.2018e-011 -3.94675e-011 -1.33631e-011
342
root  23.3345 38.6037 10.695 -3.01483 -39.5339 8.05182
RightUpLeg  -30.5523 -13.1274 3.14159
RightLeg  59.4461 7.07015 -18.3587
RightFoot  -9.229 0.182552 -4.54552
RightToes  -5.82073e-011 -3.18055e-015 -2.98177e-016
Spine  10.9411 -0.801197 -1.21569
Spine1  5.84275 1.30417 -10.1404
HEad  -3.58494 -2.01427 1.8603
LeftShoulder1  -3.88251e-019 9.70628e-020 -3.87848e-018
LeftArm  -13.1758 59.6255 -57.9858
LeftForeArm  -5.96515 -21.4901 -0.377932
LeftHand  -1.31706 -4.27734 16.6623
RightShoulder  7.63439 10.5106 36.1117
RightArm  46.7368 -57.2074 -3.87124
RightForeArm  -28.8738 50.1591 -30.7104
RightHand  -2.68637 5.88707 -27.0058
LeftUpLeg  -8.464 1.08655 -9.08941
LeftLeg  22.1677 -0.173292 7.00174
LeftFoot  -17.6489 -0.14881 -2.52754
LeftToes  1.2018e-011 -3.94675e-011 -1.33631e-011
343
root  22.3167 38.6807 11.7793 -1.17819 -40.4116 7.98337
RightUpLeg  -35.406 -13.3529 4.95787
RightLeg  54.769 7.88222 -13.7579
RightFoot  -8.97075 0.151698 -3.42324
RightToes  -5.82073e-011 -3.18055e-015 -2.98177e-016
Spine  10.4978 -1.66548 -3.40095
Spine1  3.55805 -0.46032 -7.2256
HEad  -2.46123 0.675913 0.109369
LeftShoulder1  -3.88251e-019 9.70628e-020 -3.87848e-018
LeftArm  -8.98553 58.563 -59.7629
LeftForeArm  -11.7319 -24.3548 1.51058
LeftHand  -1.31482 -4.31422 16.5367
RightShoulder  7.43799 10.4247 35.3104
RightArm  52.2741 -58.2324 -9.9139
RightForeArm  -26.9452 46.6423 -27.0404
RightHand  -2.42472 5.19416 -25.9935
LeftUpLeg  -6.22631 0.093196 -8.8423
LeftLeg  19.1279 1.76969 6.55024
LeftFoot  -18.626 -0.252386 -4.17579
LeftToes  1.2018e-011 -3.94675e-011 -1.33631e-011
344
root  21.3168 38.5079 12.8503 0.149628 -41.2481 7.98243
RightUpLeg  -39.5642 -13.2479 6.29077
RightLeg  49.0974 8.03264 -10.9855
RightFoot  -9.40083 0.137422 -3.34287
RightToes  -5.82073e-011 -3.18055e-015 -2.98177e-016
Spine  10.7018 -2.64617 -5.13721
Spine1  1.24771 -2.0755 -4.63384
HEad  -1.69631 3.33409 -1.3676
LeftShoulder1  -3.88251e-019 9.70628e-020 -3.87848e-018
LeftArm  -5.45167 56.5284 -61.3647
LeftForeArm  -17.6023 -26.7521 3.57422
LeftHand  -1.13223 -4.01385 14.7464
RightShoulder  7.30701 10.3869 34.7265
RightArm  55.2256 -58.9912 -15.3544
RightForeArm  -24.2171 42.795 -23.7133
RightHand  -2.23247 4.69126 -25.1482
LeftUpLeg  -4.47243 0.0753916 -8.50957
LeftLeg  18.1103 2.71917 6.07659
LeftFoot  -20.0611 -0.349851 -4.88073
LeftToes  1.2018e-011 -3.94675e-011 -1.33631e-011
345
root  20.3024 38.128 13.9045 0.459229 -41.3594 8.39358
RightUpLeg  -42.5732 -13.2783 6.49326
RightLeg  43.0281 7.23524 -9.81003
RightFoot  -10.2143 0.113162 -3.20585
RightToes  -5.82073e-011 -3.18055e-015 -2.98177e-016
Spine  10.8086 -3.66574 -6.81676
Spine1  0.844138 -3.51 -2.48566
HEad  -2.06932 5.26296 -1.73638
LeftShoulder1  -3.88251e-019 9.70628e-020 -3.87848e-018
LeftArm  -3.79848 51.6734 -63.2216
LeftForeArm  -19.3386 -28.2367 4.79529
LeftHand  -0.948605 -3.70112 12.864
RightShoulder  7.35883 10.431 34.8932
RightArm  55.5248 -59.2283 -19.9624
RightForeArm  -22.9929 39.3837 -21.0984
RightHand  -2.1332 4.10898 -25.474
LeftUpLeg  -2.83384 0.80062 -8.51846
LeftLeg  18.6572 2.09531 6.04012
LeftFoot  -22.2412 -0.429104 -4.61193
LeftToes  1.2018e-011 -3.94675e-011 -1.33631e-011
346
root  19.2507 37.6575 14.9854 0.0407104 -40.9061 9.63003
RightUpLeg  -45.176 -13.2853 5.30648
RightLeg  37.1846 5.93977 -9.22355
RightFoot  -10.3971 0.0971615 -2.75397
RightToes  -5.82073e-011 -3.18055e-015 -2.98177e-016
Spine  10.3475 -4.66415 -8.56494
Spine1  2.41693 -4.85464 -0.743398
HEad  -3.90308 6.37907 -1.36372
LeftShoulder1  -3.88251e-019 9.70628e-020 -3.87848e-018
LeftArm  -2.67108 44.6446 -65.002
LeftForeArm  -17.2023 -29.9666 5.67901
LeftHand  -0.937495 -3.86945 12.4636
RightShoulder  7.42161 10.4431 35.1875
RightArm  54.6576 -59.6634 -23.9983
RightForeArm  -24.9365 37.2999 -19.5061
RightHand  -2.0207 3.08682 -26.9546
LeftUpLeg  -0.86381 0.783491 -9.3341
LeftLeg  18.973 1.70605 6.27256
LeftFoot  -24.4474 -0.5603 -4.95218
LeftToes  1.2018e-011 -3.94675e-011 -1.33631e-011
